<?xml version="1.0" encoding="utf-8"?>
<!-- Generator: Adobe Illustrator 23.0.1, SVG Export Plug-In . SVG Version: 6.00 Build 0)  -->
<svg version="1.1" id="Calque_1" xmlns="http://www.w3.org/2000/svg" xmlns:xlink="http://www.w3.org/1999/xlink" x="0px" y="0px"
	 viewBox="0 0 36.33 36.33" style="enable-background:new 0 0 36.33 36.33;" xml:space="preserve">
<style type="text/css">
	.st0{fill:#048040;}
</style>
<g>
	<path class="st0" d="M13.46,25.29h0.8v-0.77c0-0.21-0.09-0.41-0.23-0.55c-0.14-0.14-0.34-0.23-0.57-0.23h-0.8v0.77
		c0,0.21,0.09,0.41,0.23,0.55C13.04,25.2,13.24,25.29,13.46,25.29L13.46,25.29L13.46,25.29z M22.04,25.29h0.8
		c0.22,0,0.42-0.09,0.57-0.23c0.14-0.14,0.23-0.33,0.23-0.55v-0.77h-0.8c-0.22,0-0.42,0.09-0.57,0.23h0
		c-0.14,0.14-0.23,0.33-0.23,0.55L22.04,25.29L22.04,25.29L22.04,25.29z M13.46,16.13h0.8v-0.78c0-0.21-0.09-0.41-0.23-0.55
		c-0.14-0.14-0.34-0.23-0.57-0.23h-0.8v0.77c0,0.21,0.09,0.41,0.23,0.55C13.04,16.04,13.24,16.13,13.46,16.13L13.46,16.13
		L13.46,16.13z M22.04,16.13h0.8c0.22,0,0.42-0.09,0.57-0.23c0.14-0.14,0.23-0.33,0.23-0.55v-0.77h-0.8c-0.22,0-0.42,0.09-0.57,0.23
		h0c-0.14,0.14-0.23,0.33-0.23,0.55L22.04,16.13L22.04,16.13L22.04,16.13z M17.03,19.37h-0.59h-2.98c-1.15,0-2.18-0.45-2.93-1.18
		c-0.75-0.73-1.21-1.73-1.21-2.84v-4.02h4.15c1.15,0,2.18,0.45,2.93,1.18c0.75,0.73,1.21,1.73,1.21,2.84v1.9h-4.15
		c-0.54,0-1.03-0.21-1.39-0.56c-0.36-0.34-0.58-0.82-0.58-1.35v-1.9h1.96c0.54,0,1.03,0.21,1.39,0.56c0.36,0.34,0.58,0.82,0.58,1.35
		v0.78h1.02v-0.78c0-0.8-0.33-1.52-0.87-2.04c-0.54-0.52-1.29-0.85-2.11-0.85h-2.98v2.89c0,0.8,0.33,1.52,0.87,2.04
		c0.54,0.52,1.29,0.85,2.11,0.85h2.98h0.59h5.81c0.82,0,1.57-0.32,2.11-0.85c0.54-0.52,0.87-1.24,0.87-2.04v-2.89h-2.98
		c-0.82,0-1.57,0.32-2.11,0.85c-0.54,0.52-0.87,1.24-0.87,2.04v0.77h1.02v-0.77c0-0.52,0.22-1,0.58-1.34l0,0
		c0.36-0.34,0.85-0.56,1.39-0.56h1.97v1.9c0,0.53-0.22,1-0.58,1.35c-0.35,0.34-0.85,0.56-1.39,0.56h-4.15v-1.9
		c0-1.11,0.46-2.11,1.21-2.84c0.75-0.73,1.79-1.18,2.93-1.18h4.15v4.02c0,1.11-0.46,2.11-1.21,2.84c-0.75,0.73-1.79,1.18-2.93,1.18
		L17.03,19.37L17.03,19.37z M17.58,7.42l0.57,0.55l0.57-0.55c0.16-0.15,0.23-0.35,0.23-0.55c0-0.2-0.08-0.4-0.23-0.55l-0.57-0.55
		l-0.57,0.55c-0.16,0.15-0.23,0.35-0.23,0.55C17.35,7.07,17.43,7.27,17.58,7.42L17.58,7.42z M18.15,9.57l-1.39-1.35
		c-0.38-0.37-0.58-0.86-0.58-1.35s0.19-0.97,0.58-1.35l1.39-1.35l1.39,1.35c0.38,0.37,0.58,0.86,0.58,1.35s-0.19,0.97-0.58,1.35
		l-0.4,0.39l-0.17,0.16L18.15,9.57L18.15,9.57L18.15,9.57z M18.87,10.26l0.21-0.21l0.61-0.59l0.17-0.16l0.4-0.39
		c0.58-0.56,0.87-1.3,0.87-2.04c0-0.74-0.29-1.48-0.87-2.04l-2.11-2.04l-2.11,2.04c-0.58,0.56-0.87,1.3-0.87,2.04
		c0,0.74,0.29,1.48,0.87,2.04l2.1,2.04l0,0L18.87,10.26L18.87,10.26L18.87,10.26z M17.74,12.16l-0.42-0.4l-2.1-2.04
		C14.41,8.93,14,7.9,14,6.88c0-1.03,0.4-2.06,1.21-2.84l2.93-2.84l2.93,2.84c0.81,0.78,1.22,1.81,1.22,2.84
		c0,1.03-0.4,2.06-1.22,2.84l-0.69,0.67l-0.48,0.46l-0.21,0.21l-0.72,0.7l-0.39,0.38l-0.44,0.42L17.74,12.16L17.74,12.16
		L17.74,12.16z M16.36,33.24c-3.58-0.4-6.8-1.98-9.22-4.32c-2.82-2.73-4.56-6.5-4.56-10.67s1.74-7.94,4.56-10.67
		c1.85-1.79,4.16-3.14,6.75-3.85c-0.34,0.44-0.61,0.92-0.8,1.44c-1.94,0.71-3.69,1.81-5.13,3.2c-2.61,2.53-4.22,6.02-4.22,9.87
		s1.61,7.35,4.22,9.87c2.21,2.14,5.14,3.59,8.4,3.98L16.36,33.24L16.36,33.24z M22.42,3.73c2.59,0.71,4.9,2.06,6.75,3.85
		c2.82,2.73,4.56,6.5,4.56,10.67s-1.74,7.94-4.56,10.67c-2.42,2.35-5.64,3.92-9.22,4.32V32.1c3.26-0.39,6.19-1.84,8.4-3.98
		c2.61-2.53,4.22-6.02,4.22-9.87c0-3.85-1.61-7.35-4.22-9.87c-1.44-1.4-3.18-2.5-5.13-3.2C23.03,4.66,22.76,4.17,22.42,3.73
		L22.42,3.73z M17.03,28.53h-0.59h-2.98c-1.15,0-2.18-0.45-2.93-1.18c-0.75-0.73-1.21-1.73-1.21-2.84V20.5h4.15
		c1.15,0,2.18,0.45,2.93,1.18c0.75,0.73,1.21,1.73,1.21,2.84v1.9h-4.15c-0.54,0-1.03-0.21-1.39-0.56c-0.36-0.34-0.57-0.82-0.57-1.35
		v-1.9h1.96c0.54,0,1.03,0.21,1.39,0.56c0.36,0.34,0.58,0.82,0.58,1.35v0.77h1.02v-0.77c0-0.8-0.33-1.52-0.87-2.04
		c-0.54-0.52-1.29-0.85-2.11-0.85h-2.98v2.89c0,0.8,0.33,1.52,0.87,2.04c0.54,0.52,1.29,0.85,2.11,0.85h2.98h0.59h5.81
		c0.82,0,1.57-0.32,2.11-0.85c0.54-0.52,0.87-1.24,0.87-2.04v-2.89h-2.98c-0.82,0-1.57,0.32-2.11,0.85
		c-0.54,0.52-0.87,1.25-0.87,2.04v0.77h1.02v-0.77c0-0.52,0.22-1,0.58-1.34l0,0c0.36-0.34,0.85-0.56,1.39-0.56h1.97v1.9
		c0,0.53-0.22,1-0.58,1.35c-0.35,0.34-0.85,0.56-1.39,0.56h-4.15v-1.9c0-1.11,0.46-2.11,1.21-2.84s1.79-1.18,2.93-1.18h4.15v4.02
		c0,1.11-0.46,2.11-1.21,2.84c-0.75,0.73-1.79,1.18-2.93,1.18h-4.11v6.77h-1.16v-6.77L17.03,28.53L17.03,28.53z"/>
	<g>
		<g>
			<g>
				<path class="st0" d="M11.94,33.76c-0.13,0.06-0.47-0.28-0.62-0.65c-0.14-0.35-0.15-0.83,0-0.87c0.18-0.06,0.65,0.58,0.69,1.21
					C12,33.55,12.01,33.72,11.94,33.76z"/>
				<path class="st0" d="M11.69,34.42c0.11,0.19-0.21,0.59-0.56,0.78c-0.57,0.3-1.4,0.16-1.47-0.1c-0.07-0.27,0.71-0.77,1.44-0.82
					C11.24,34.28,11.6,34.26,11.69,34.42z"/>
				<path class="st0" d="M10.93,33.22c0.15-0.1-0.01-0.71-0.43-1.06c-0.13-0.11-0.43-0.31-0.55-0.23C9.8,32.03,9.99,32.64,10.43,33
					C10.46,33.02,10.8,33.3,10.93,33.22z"/>
				<path class="st0" d="M10.48,33.79c0.06,0.14-0.14,0.33-0.24,0.43c-0.64,0.62-1.8,0.85-1.96,0.59c-0.13-0.22,0.41-0.86,1.08-1.08
					C9.8,33.58,10.39,33.59,10.48,33.79z"/>
				<path class="st0" d="M9.33,33.32c0.05,0.19-0.51,0.54-1.05,0.67c-0.71,0.17-1.54,0-1.57-0.22c-0.03-0.21,0.7-0.48,1.25-0.58
					C8.51,33.09,9.28,33.11,9.33,33.32z"/>
				<path class="st0" d="M9.43,32.79c0.15-0.05,0.16-0.57-0.05-0.97c-0.07-0.14-0.25-0.41-0.37-0.39c-0.13,0.03-0.18,0.4-0.1,0.7
					C9,32.49,9.29,32.84,9.43,32.79z"/>
				<path class="st0" d="M8.59,32.1c0.13-0.04,0.1-0.48-0.04-0.82c-0.04-0.09-0.14-0.33-0.23-0.32C8.2,30.98,8.1,31.34,8.2,31.66
					C8.27,31.9,8.48,32.14,8.59,32.1z"/>
				<path class="st0" d="M8.02,32.54c0.02,0.16-0.4,0.34-0.67,0.4c-0.51,0.12-1.12,0-1.15-0.19c-0.02-0.15,0.3-0.31,0.45-0.38
					C7.23,32.14,7.99,32.33,8.02,32.54z"/>
				<path class="st0" d="M7.83,31.47c0.11-0.04,0.07-0.45-0.07-0.76c-0.03-0.07-0.16-0.35-0.25-0.33c-0.11,0.02-0.17,0.41-0.03,0.73
					C7.56,31.3,7.74,31.51,7.83,31.47z"/>
				<path class="st0" d="M7.17,31.67c0.01,0.08-0.29,0.17-0.42,0.2C6.4,31.94,5.99,31.9,5.97,31.8c-0.01-0.08,0.25-0.2,0.45-0.24
					C6.77,31.48,7.16,31.57,7.17,31.67z"/>
				<path class="st0" d="M6.68,31.09c0,0-0.16,0.11-0.45,0.03c-0.63-0.16-1.71-3.07-1.68-3.08c0.01,0,0.05,0.2,0.5,1.29
					c0.41,0.99,0.67,1.52,0.97,1.52c0.13,0,0.21-0.1,0.43-0.08c0.13,0.01,0.33,0.07,0.35,0.16C6.81,31.01,6.7,31.08,6.68,31.09z"/>
				<path class="st0" d="M5.26,28.1c0.03,0.03,0.08,0.09,0.15,0.16c0.89,0.98,1.34,1.46,1.28,1.9c-0.01,0.07-0.04,0.23,0.05,0.33
					c0.08,0.09,0.24,0.12,0.3,0.07c0.06-0.05,0.04-0.21-0.25-0.66"/>
				<path class="st0" d="M15.31,34.9c0.03-0.11-0.11-0.26-0.25-0.31c-0.19-0.07-0.39,0.01-0.43,0.03c-0.64,0.25-2.62-0.65-4.19-1.33
					c-1.37-0.59-1.42-0.59-1.69-0.78c-1.13-0.77-1.71-1.81-1.77-1.77c-0.03,0.02,0.13,0.35,0.39,0.69c0.55,0.73,1.23,1.15,1.97,1.53
					c1.54,0.8,1.5,0.5,2.7,1.15c1,0.55,1.55,1.05,2.46,1.02C14.6,35.14,15.26,35.11,15.31,34.9z"/>
			</g>
			<g>
				<path class="st0" d="M24.18,33.76c0.13,0.06,0.47-0.28,0.62-0.65c0.14-0.35,0.15-0.83,0-0.87c-0.18-0.06-0.65,0.58-0.69,1.21
					C24.11,33.56,24.1,33.73,24.18,33.76z"/>
				<path class="st0" d="M24.42,34.43c-0.11,0.19,0.21,0.59,0.56,0.78c0.57,0.3,1.4,0.16,1.47-0.1c0.07-0.27-0.71-0.77-1.44-0.82
					C24.87,34.29,24.51,34.26,24.42,34.43z"/>
				<path class="st0" d="M25.18,33.22c-0.15-0.1,0.01-0.71,0.43-1.06c0.13-0.11,0.43-0.31,0.55-0.23c0.15,0.11-0.04,0.72-0.47,1.07
					C25.65,33.03,25.31,33.31,25.18,33.22z"/>
				<path class="st0" d="M25.64,33.79c-0.06,0.14,0.14,0.33,0.24,0.43c0.64,0.62,1.8,0.85,1.96,0.59c0.13-0.22-0.41-0.86-1.08-1.08
					C26.31,33.58,25.72,33.59,25.64,33.79z"/>
				<path class="st0" d="M26.78,33.32c-0.05,0.19,0.51,0.54,1.05,0.67c0.71,0.17,1.54,0,1.57-0.22c0.03-0.21-0.7-0.48-1.25-0.58
					C27.6,33.1,26.83,33.11,26.78,33.32z"/>
				<path class="st0" d="M26.68,32.8c-0.15-0.05-0.16-0.57,0.05-0.97c0.07-0.14,0.25-0.41,0.37-0.39c0.13,0.03,0.18,0.4,0.1,0.7
					C27.11,32.5,26.82,32.84,26.68,32.8z"/>
				<path class="st0" d="M27.52,32.11c-0.13-0.04-0.1-0.48,0.04-0.82c0.04-0.09,0.14-0.33,0.23-0.32c0.11,0.01,0.22,0.38,0.12,0.69
					C27.84,31.9,27.63,32.14,27.52,32.11z"/>
				<path class="st0" d="M28.09,32.55c-0.02,0.16,0.4,0.34,0.67,0.4c0.51,0.12,1.12,0,1.15-0.19c0.02-0.15-0.3-0.31-0.45-0.38
					C28.88,32.14,28.12,32.34,28.09,32.55z"/>
				<path class="st0" d="M28.28,31.48c-0.11-0.04-0.07-0.45,0.07-0.76c0.03-0.07,0.16-0.35,0.25-0.33c0.11,0.02,0.17,0.41,0.03,0.73
					C28.55,31.3,28.37,31.51,28.28,31.48z"/>
				<path class="st0" d="M28.94,31.67c-0.01,0.08,0.29,0.17,0.42,0.2c0.34,0.08,0.75,0.03,0.77-0.06c0.01-0.08-0.25-0.2-0.45-0.24
					C29.34,31.49,28.95,31.58,28.94,31.67z"/>
				<path class="st0" d="M29.43,31.1c0,0,0.16,0.11,0.45,0.03c0.63-0.16,1.71-3.07,1.68-3.08c-0.01,0-0.05,0.2-0.5,1.29
					c-0.41,0.99-0.67,1.52-0.97,1.52c-0.13,0-0.21-0.1-0.43-0.08c-0.13,0.01-0.33,0.07-0.35,0.16C29.3,31.02,29.41,31.08,29.43,31.1
					z"/>
				<path class="st0" d="M30.85,28.1c-0.03,0.03-0.08,0.09-0.15,0.16c-0.89,0.98-1.34,1.46-1.28,1.9c0.01,0.07,0.04,0.23-0.05,0.33
					c-0.08,0.09-0.24,0.12-0.3,0.07c-0.06-0.05-0.04-0.21,0.25-0.66"/>
				<path class="st0" d="M20.8,34.91c-0.03-0.11,0.11-0.26,0.25-0.31c0.19-0.07,0.39,0.01,0.43,0.03c0.64,0.25,2.62-0.65,4.19-1.33
					c1.37-0.59,1.42-0.59,1.69-0.78c1.13-0.77,1.71-1.81,1.77-1.77c0.03,0.02-0.13,0.35-0.39,0.69c-0.55,0.73-1.23,1.15-1.97,1.53
					c-1.54,0.8-1.5,0.5-2.7,1.15c-1,0.55-1.55,1.05-2.46,1.02C21.51,35.14,20.85,35.12,20.8,34.91z"/>
			</g>
		</g>
		<g>
			<g>
				<path class="st0" d="M24.37,3.22c0.13-0.06,0.47,0.28,0.62,0.65c0.14,0.35,0.15,0.83,0,0.87c-0.18,0.06-0.65-0.58-0.69-1.21
					C24.3,3.42,24.29,3.25,24.37,3.22z"/>
				<path class="st0" d="M24.61,2.56c-0.11-0.19,0.21-0.59,0.56-0.78c0.57-0.3,1.4-0.16,1.47,0.1c0.07,0.27-0.71,0.77-1.44,0.82
					C25.06,2.69,24.7,2.72,24.61,2.56z"/>
				<path class="st0" d="M25.37,3.76c-0.15,0.1,0.01,0.71,0.43,1.06c0.13,0.11,0.43,0.31,0.55,0.23c0.15-0.11-0.04-0.72-0.47-1.07
					C25.84,3.95,25.5,3.67,25.37,3.76z"/>
				<path class="st0" d="M25.83,3.19c-0.06-0.14,0.14-0.33,0.24-0.43c0.64-0.62,1.8-0.85,1.96-0.59c0.13,0.22-0.41,0.86-1.08,1.08
					C26.5,3.4,25.91,3.39,25.83,3.19z"/>
				<path class="st0" d="M26.97,3.66c-0.05-0.19,0.51-0.54,1.05-0.67c0.71-0.17,1.54,0,1.57,0.22c0.03,0.21-0.7,0.48-1.25,0.58
					C27.79,3.88,27.02,3.87,26.97,3.66z"/>
				<path class="st0" d="M26.87,4.18c-0.15,0.05-0.16,0.57,0.05,0.97C27,5.3,27.17,5.57,27.29,5.54c0.13-0.03,0.18-0.4,0.1-0.7
					C27.3,4.48,27.01,4.14,26.87,4.18z"/>
				<path class="st0" d="M27.72,4.87c-0.13,0.04-0.1,0.48,0.04,0.82c0.04,0.09,0.14,0.33,0.23,0.32C28.1,6,28.21,5.63,28.1,5.32
					C28.03,5.08,27.82,4.84,27.72,4.87z"/>
				<path class="st0" d="M28.29,4.44c-0.02-0.16,0.4-0.34,0.67-0.4c0.51-0.12,1.12,0,1.15,0.19c0.02,0.15-0.3,0.31-0.45,0.38
					C29.07,4.84,28.31,4.64,28.29,4.44z"/>
				<path class="st0" d="M28.47,5.5c-0.11,0.04-0.07,0.45,0.07,0.76c0.03,0.07,0.16,0.35,0.25,0.33c0.11-0.02,0.17-0.41,0.03-0.73
					C28.74,5.68,28.56,5.47,28.47,5.5z"/>
				<path class="st0" d="M29.13,5.31c-0.01-0.08,0.29-0.17,0.42-0.2c0.34-0.08,0.75-0.03,0.77,0.06c0.01,0.08-0.25,0.2-0.45,0.24
					C29.53,5.49,29.14,5.4,29.13,5.31z"/>
				<path class="st0" d="M29.62,5.88c0,0,0.16-0.11,0.45-0.03c0.63,0.16,1.71,3.07,1.68,3.08c-0.01,0-0.05-0.2-0.5-1.29
					c-0.41-0.99-0.67-1.52-0.97-1.52c-0.13,0-0.21,0.1-0.43,0.08c-0.13-0.01-0.33-0.07-0.35-0.16C29.49,5.97,29.6,5.9,29.62,5.88z"
					/>
				<path class="st0" d="M31.04,8.88c-0.03-0.03-0.08-0.09-0.15-0.16c-0.89-0.98-1.34-1.46-1.28-1.9c0.01-0.07,0.04-0.23-0.05-0.33
					c-0.08-0.09-0.24-0.12-0.3-0.07c-0.06,0.05-0.04,0.21,0.25,0.66"/>
				<path class="st0" d="M20.99,2.08c-0.03,0.11,0.11,0.26,0.25,0.31c0.19,0.07,0.39-0.01,0.43-0.03C22.32,2.11,24.3,3,25.87,3.68
					c1.37,0.59,1.42,0.59,1.69,0.78c1.13,0.77,1.71,1.81,1.77,1.77c0.03-0.02-0.13-0.35-0.39-0.69c-0.55-0.73-1.23-1.15-1.97-1.53
					c-1.54-0.8-1.5-0.5-2.7-1.15c-1-0.55-1.55-1.05-2.46-1.02C21.7,1.84,21.04,1.86,20.99,2.08z"/>
			</g>
			<g>
				<path class="st0" d="M12.13,3.22c-0.13-0.06-0.47,0.28-0.62,0.65c-0.14,0.35-0.15,0.83,0,0.87c0.18,0.06,0.65-0.58,0.69-1.21
					C12.19,3.42,12.2,3.25,12.13,3.22z"/>
				<path class="st0" d="M11.88,2.55c0.11-0.19-0.21-0.59-0.56-0.78c-0.57-0.3-1.4-0.16-1.47,0.1c-0.07,0.27,0.71,0.77,1.44,0.82
					C11.43,2.69,11.79,2.71,11.88,2.55z"/>
				<path class="st0" d="M11.12,3.75c0.15,0.1-0.01,0.71-0.43,1.06c-0.13,0.11-0.43,0.31-0.55,0.23c-0.15-0.11,0.04-0.72,0.47-1.07
					C10.65,3.95,10.99,3.67,11.12,3.75z"/>
				<path class="st0" d="M10.66,3.18c0.06-0.14-0.14-0.33-0.24-0.43c-0.64-0.62-1.8-0.85-1.96-0.59C8.33,2.39,8.88,3.03,9.55,3.25
					C9.99,3.39,10.58,3.38,10.66,3.18z"/>
				<path class="st0" d="M9.52,3.65c0.05-0.19-0.51-0.54-1.05-0.67c-0.71-0.17-1.54,0-1.57,0.22C6.87,3.41,7.6,3.69,8.15,3.78
					C8.7,3.88,9.47,3.86,9.52,3.65z"/>
				<path class="st0" d="M9.62,4.17c0.15,0.05,0.16,0.57-0.05,0.97C9.5,5.29,9.32,5.56,9.2,5.53c-0.13-0.03-0.18-0.4-0.1-0.7
					C9.19,4.48,9.48,4.13,9.62,4.17z"/>
				<path class="st0" d="M8.78,4.87c0.13,0.04,0.1,0.48-0.04,0.82C8.7,5.78,8.6,6.01,8.51,6C8.39,5.99,8.29,5.62,8.39,5.31
					C8.47,5.07,8.67,4.83,8.78,4.87z"/>
				<path class="st0" d="M8.21,4.43c0.02-0.16-0.4-0.34-0.67-0.4c-0.51-0.12-1.12,0-1.15,0.19c-0.02,0.15,0.3,0.31,0.45,0.38
					C7.43,4.83,8.18,4.64,8.21,4.43z"/>
				<path class="st0" d="M8.02,5.49c0.11,0.04,0.07,0.45-0.07,0.76C7.92,6.32,7.79,6.61,7.7,6.59C7.59,6.57,7.53,6.18,7.67,5.86
					C7.75,5.67,7.93,5.46,8.02,5.49z"/>
				<path class="st0" d="M7.36,5.3c0.01-0.08-0.29-0.17-0.42-0.2C6.59,5.03,6.18,5.07,6.16,5.17c-0.01,0.08,0.25,0.2,0.45,0.24
					C6.96,5.49,7.35,5.4,7.36,5.3z"/>
				<path class="st0" d="M6.87,5.88c0,0-0.16-0.11-0.45-0.03C5.8,6.01,4.71,8.92,4.74,8.93c0.01,0,0.05-0.2,0.5-1.29
					c0.41-0.99,0.67-1.52,0.97-1.52c0.13,0,0.21,0.1,0.43,0.08c0.13-0.01,0.33-0.07,0.35-0.16C7,5.96,6.9,5.89,6.87,5.88z"/>
				<path class="st0" d="M5.45,8.87C5.48,8.84,5.53,8.79,5.6,8.72c0.89-0.98,1.34-1.46,1.28-1.9C6.87,6.75,6.83,6.59,6.93,6.49
					c0.08-0.09,0.24-0.12,0.3-0.07c0.06,0.05,0.04,0.21-0.25,0.66"/>
				<path class="st0" d="M15.5,2.07c0.03,0.11-0.11,0.26-0.25,0.31c-0.19,0.07-0.39-0.01-0.43-0.03C14.18,2.1,12.19,3,10.63,3.68
					C9.26,4.27,9.21,4.27,8.93,4.46C7.8,5.23,7.22,6.26,7.16,6.23C7.13,6.21,7.3,5.88,7.56,5.53C8.1,4.8,8.78,4.39,9.52,4
					c1.54-0.8,1.5-0.5,2.7-1.15c1-0.55,1.55-1.05,2.46-1.02C14.79,1.83,15.45,1.86,15.5,2.07z"/>
			</g>
		</g>
	</g>
</g>
</svg>
